<svg width="42" height="42" viewBox="0 0 42 42" fill="none" xmlns="http://www.w3.org/2000/svg">
<path d="M3.29865 9.723C5.14757 6.825 7.66884 4.41 10.6733 2.73C15.0225 4.158 19.7499 6.93 23.3847 11.067C17.2916 13.293 10.1481 13.314 3.29865 9.723ZM9.45473 38.535C3.76088 34.776 0 28.329 0 21C0 18.354 0.483242 15.813 1.4077 13.482C5.84092 15.792 10.3792 16.821 14.7704 16.821C18.7204 16.821 22.5233 16.002 25.99 14.574C26.7674 15.834 27.4397 17.22 27.986 18.69C25.99 19.404 24.015 20.349 22.1451 21.504C15.6948 25.536 11.1566 31.626 9.45473 38.535ZM16.3462 0.525C17.8379 0.189 19.4137 0 21.0105 0C25.8009 0 30.1921 1.596 33.7219 4.284C31.936 6.216 29.7719 7.917 27.3557 9.261C24.2461 5.397 20.2961 2.499 16.3462 0.525ZM29.4357 24.969C30.4022 34.755 26.074 40.782 25.5488 41.496C25.5278 41.496 25.5278 41.517 25.5278 41.517C24.078 41.832 22.5653 42 21.0105 42C18.2791 42 15.6948 41.475 13.2997 40.53C14.5393 34.272 18.5313 28.686 24.3512 25.074C25.8849 24.108 27.4817 23.331 29.1206 22.743C29.2466 23.457 29.3517 24.213 29.4357 24.969ZM42 21.714C41.7479 29.148 37.6508 35.616 31.5998 39.144C32.9865 35.784 34.2471 30.828 33.6168 24.549C33.5118 23.541 33.3647 22.554 33.1756 21.609C36.2011 21.021 39.2056 21.042 42 21.714ZM32.062 17.556C31.4317 15.834 30.6753 14.217 29.7719 12.726C32.4402 11.193 34.8354 9.303 36.7894 7.14C39.2896 9.975 41.0335 13.482 41.7059 17.367C38.5963 16.821 35.3187 16.884 32.062 17.556Z" fill="#FFFFFF"/>
</svg>
