<svg width="42" height="42" viewBox="0 0 42 42" fill="none" xmlns="http://www.w3.org/2000/svg">
<path d="M21 0C9.40204 0 0 9.6446 0 21.5318C0 31.0468 6.01983 39.1229 14.3618 41.9748C15.4093 42.1692 16.1538 41.0673 16.1538 40.2377C16.1538 39.7321 16.1665 39.1229 16.1538 37.3339C10.3107 38.6303 8.48077 34.4302 8.48077 34.4302C7.52163 31.9413 6.36058 31.2283 6.36058 31.2283C4.45493 29.8931 6.4994 29.932 6.4994 29.932C8.60697 30.0746 9.69231 31.9413 9.69231 31.9413C11.3077 34.845 14.9549 34.5598 16.1538 34.0154C16.1538 32.6931 16.2927 31.7339 16.646 31.1246C10.0457 29.932 6.44892 26.0171 6.46154 20.5985C6.47416 17.3966 7.54688 14.9077 9.28846 13.0669C8.53125 12.0817 8.01382 8.71125 9.56611 6.63715C13.4657 6.63715 15.7879 9.52793 15.7879 9.52793C15.7879 9.52793 17.6178 8.71125 20.9874 8.71125C24.3696 8.71125 26.1869 9.48904 26.1869 9.48904C26.1869 9.48904 28.5216 6.63715 32.4213 6.63715C33.9736 8.71125 33.4561 12.0817 32.8504 13.0021C34.5162 14.8039 35.5385 17.2929 35.5385 20.5985C35.5385 26.0171 31.9543 29.932 25.3666 31.1116C25.7831 31.7598 25.8462 32.6672 25.8462 34.0154C25.8462 36.8932 25.8462 39.5247 25.8462 40.2377C25.8462 41.0673 26.5781 42.1822 27.6508 41.9748C35.9928 39.1099 42 31.0468 42 21.5318C42 9.6446 32.598 0 21 0Z" fill="#D1BFA7"/>
</svg>
