<svg width="94" height="88" viewBox="0 0 94 88" fill="none" xmlns="http://www.w3.org/2000/svg">
<rect width="93.118" height="87.122" fill="white"/>
<path d="M46.702 16.218C46.3567 16.7113 45.962 17.2787 45.518 17.92C45.1233 18.512 44.7287 19.104 44.334 19.696C43.446 21.028 42.4593 22.582 41.374 24.358C40.338 26.0847 39.2527 27.9347 38.118 29.908C36.9833 31.832 35.8733 33.756 34.788 35.68C33.752 37.604 32.7653 39.38 31.828 41.008C33.2093 40.2187 34.6153 39.6513 36.046 39.306C37.4767 38.9607 38.9073 38.788 40.338 38.788C43.1007 38.788 45.2713 39.6267 46.85 41.304C48.478 42.932 49.366 45.3 49.514 48.408C49.5633 49.4933 49.588 50.8007 49.588 52.33C49.588 53.8593 49.588 55.3887 49.588 56.918C49.6373 58.4473 49.7113 59.73 49.81 60.766C49.958 62.1967 50.476 63.2327 51.364 63.874C52.3013 64.466 53.3867 64.762 54.62 64.762C56.1987 64.762 57.6293 64.2933 58.912 63.356C60.244 62.4187 61.428 61.136 62.464 59.508C63.5 57.8307 64.388 55.956 65.128 53.884C65.9173 51.7627 66.5833 49.5673 67.126 47.298L75.118 53.81C73.8353 58.0033 72.2073 61.7033 70.234 64.91C68.2607 68.0673 65.8433 70.5093 62.982 72.236C60.17 74.012 56.8647 74.9 53.066 74.9C50.3527 74.9 48.0833 74.4067 46.258 73.42C44.4327 72.4827 43.076 71.2493 42.188 69.72C41.3 68.1413 40.8067 66.4393 40.708 64.614C40.6093 63.282 40.5353 61.802 40.486 60.174C40.486 58.546 40.4613 56.9673 40.412 55.438C40.412 53.8593 40.3627 52.5767 40.264 51.59C40.1653 50.3073 39.746 49.296 39.006 48.556C38.266 47.816 37.23 47.446 35.898 47.446C34.27 47.446 32.716 47.964 31.236 49C29.756 50.036 28.3993 51.3927 27.166 53.07C25.982 54.7473 24.946 56.5973 24.058 58.62C23.5647 59.7053 23.0467 60.988 22.504 62.468C21.9613 63.948 21.4433 65.4773 20.95 67.056C20.4567 68.6347 19.988 70.1147 19.544 71.496C19.1 72.9267 18.73 74.1353 18.434 75.122L8 71.57C8.93733 69.1033 10.072 66.2913 11.404 63.134C12.7853 59.9273 14.29 56.5727 15.918 53.07C17.546 49.5673 19.1987 46.0893 20.876 42.636C22.5533 39.1827 24.1567 35.9267 25.686 32.868C27.2153 29.76 28.572 27.0713 29.756 24.802C30.9893 22.4833 31.9267 20.732 32.568 19.548C33.0613 18.5613 33.6287 17.4513 34.27 16.218C34.9113 14.9847 35.5527 13.5787 36.194 12L46.702 16.218Z" fill="#1A1C1C"/>
<rect x="75.1182" y="65.1221" width="10" height="10" fill="#1A1C1C"/>
</svg>
